<svg xmlns="http://www.w3.org/2000/svg" viewBox="0 0 980.61 944.57"><defs><style>.cls-1{fill:#4a5568;}</style></defs><title>logo</title><g id="Smaller_R" data-name="Smaller R"><path class="cls-1" d="M945.26,737a4,4,0,0,0-1.29-7.84c-20.36-.17-52.64,7.52-90.5,45.38C789.7,838.29,784.11,891,783.92,893a.49.49,0,0,0,0,.12v484.76c0,84.17,123.82,88.51,137.83,88.73A1.31,1.31,0,0,1,923,1468v16a1.31,1.31,0,0,1-1.31,1.31H531.15a1.31,1.31,0,0,1-1.32-1.31v-17.38a1.32,1.32,0,0,1,1.32-1.31c89.29-.49,94.13-51.37,94.28-53.22V795.26c0-50.31-82.86-53.64-94.2-53.86a1.3,1.3,0,0,1-1.27-1.31V722.7a1.3,1.3,0,0,1,1.31-1.31l251.33.06a1.31,1.31,0,0,1,1.31,1.31v88.6a2,2,0,0,0,3.84.89c5.13-10.59,16.41-29.48,39.6-53,37.35-37.87,90-90.25,177.39-69.65,98.21,23.14,92.79,115.64,92.61,118.31V808c.13,2.66,3.77,94.18-94.44,94.18-99.65,0-96-96-96-96S905,751.56,945.26,737Z" transform="translate(-528.78 -551.43)"/></g><g id="Larger_R" data-name="Larger R"><path class="cls-1" d="M1041.91,571.44H528.78v-20h575.61s284.09-6.34,284.09,228.44c0,187.72-186.12,231.74-260.73,241.85a2.79,2.79,0,0,0,0,5.54c59.75,7.65,188.45,37.59,209.06,154.09,27,152.61,30.52,272.07,79.82,278.22,49.48,6.16,92.74-47,92.74-47s-25.84,85.31-140.87,83.35c-108-1.84-130.3-32.87-130.3-32.87s-59.87-52.71-77.48-216c-18-167.31-110.35-222.11-110.35-222.11s146.3-17.32,159.65-210.56C1222.57,633.26,1089.91,581,1089.91,581A124.88,124.88,0,0,0,1041.91,571.44Z" transform="translate(-528.78 -551.43)"/></g></svg>